<svg xmlns="http://www.w3.org/2000/svg" xmlns:xlink="http://www.w3.org/1999/xlink" 
width="500" zoomAndPan="magnify" viewBox="0 0 375 374.999991" 
height="500" preserveAspectRatio="xMidYMid meet" version="1.0"><defs><g/><clipPath id="fcabcec433"><path d="M 251.296875 127.351562 L 314 127.351562 L 314 216 L 251.296875 216 Z M 251.296875 127.351562 " clip-rule="nonzero"/></clipPath><clipPath id="df1e584d9f"><path d="M 262 148 L 342.046875 148 L 342.046875 221.101562 L 262 221.101562 Z M 262 148 " clip-rule="nonzero"/></clipPath><clipPath id="3f4e6812da"><path d="M 60 127.351562 L 123.109375 127.351562 L 123.109375 216 L 60 216 Z M 60 127.351562 " clip-rule="nonzero"/></clipPath><clipPath id="68dab74df4"><path d="M 32.617188 148 L 113 148 L 113 221.101562 L 32.617188 221.101562 Z M 32.617188 148 " clip-rule="nonzero"/></clipPath></defs><g fill="#b98ee4" fill-opacity="1"><g transform="translate(94.485189, 187.545837)"><g><path d="M 27.328125 -10.046875 C 27.328125 -10.359375 27.234375 -10.921875 27.1875 -11.484375 L 31.375 -16.171875 L 30.171875 -17.34375 C 27.515625 -14.828125 24.6875 -16.875 19.015625 -16.875 L 12.96875 -10.828125 L 14.171875 -9.625 C 15.671875 -11.0625 17.203125 -10.453125 19.984375 -10.140625 L 19.984375 -7.578125 C 19.015625 -6.515625 17.984375 -6.234375 16.546875 -6.734375 C 12.6875 -8.046875 9.8125 -12.359375 8.640625 -15.9375 C 7.0625 -21.65625 7.671875 -25.109375 10.140625 -27.140625 C 14.96875 -30.953125 16.59375 -21.46875 21.421875 -21.25 L 29.09375 -26.03125 L 28.171875 -27.5625 C 24.078125 -25.328125 23.375 -34.078125 17.34375 -34.078125 C 14.875 -34.078125 11.8125 -32.765625 8.1875 -29.65625 C 3.765625 -25.703125 -0.5625 -20.78125 0.796875 -13.15625 C 2.234375 -6.1875 7.25 0 13.34375 0 C 16.546875 0 18.828125 -1.671875 20.59375 -4 C 21.25 -2.140625 22.359375 -0.796875 23.65625 0 L 31.375 -6.28125 L 30.265625 -7.765625 C 28.078125 -6.140625 27.609375 -7.390625 27.328125 -10.046875 Z M 27.328125 -10.046875 "/></g></g></g><g fill="#b98ee4" fill-opacity="1"><g transform="translate(126.228706, 187.545837)"><g><path d="M 16.125 -15.0625 L 22.171875 -20.078125 C 22.171875 -20.078125 18.828125 -25.75 15.296875 -25.75 L 10.546875 -21.203125 C 10.09375 -23.15625 9.015625 -24.40625 7.203125 -25.75 L -1.109375 -18.78125 L -0.328125 -17.296875 C 2.421875 -19.0625 3.484375 -18.125 3.578125 -15.296875 L 3.578125 -8.046875 C 3.53125 -4 5.109375 -1.296875 7.203125 0 L 14.875 -6.1875 L 13.8125 -7.625 C 11.625 -6.09375 10.875 -7.578125 10.921875 -9.953125 L 10.875 -17.484375 L 10.875 -18.171875 L 11.15625 -18.453125 C 13.109375 -20.265625 14.828125 -17.25 16.125 -15.0625 Z M 16.125 -15.0625 "/></g></g></g><g fill="#b98ee4" fill-opacity="1"><g transform="translate(146.72489, 187.545837)"><g><path d="M 1.015625 -29.328125 L 2.75 -26.921875 L 10.1875 -31.703125 L 7.90625 -34.859375 Z M 13.8125 -7.671875 C 11.625 -6.09375 10.828125 -7.578125 10.921875 -9.953125 L 10.828125 -17.484375 C 10.921875 -21.890625 10 -23.703125 7.203125 -25.75 L -1.109375 -18.828125 L -0.375 -17.34375 C 2.375 -19.015625 3.4375 -18.125 3.578125 -15.296875 L 3.578125 -8.046875 C 3.578125 -3.953125 5.15625 -1.25 7.203125 0 L 14.875 -6.1875 Z M 13.8125 -7.671875 "/></g></g></g><g fill="#b98ee4" fill-opacity="1"><g transform="translate(161.039685, 187.545837)"><g><path d="M 39.515625 -7.71875 C 37.328125 -6.140625 36.578125 -7.578125 36.578125 -10.046875 L 36.578125 -17.4375 C 36.625 -21.9375 35.65625 -25.703125 32.90625 -25.75 C 30.3125 -25.796875 26.828125 -22.078125 23.84375 -17.015625 L 23.84375 -17.4375 C 23.890625 -21.84375 23.28125 -25.75 20.171875 -25.75 C 17.15625 -25.75 13.90625 -21.84375 10.875 -16.6875 L 10.875 -17.4375 C 10.96875 -21.84375 10.046875 -23.703125 7.25 -25.75 L -1.109375 -18.78125 L -0.328125 -17.34375 C 2.421875 -19.015625 3.53125 -18.171875 3.578125 -15.25 L 3.578125 -8.09375 C 3.578125 -4 5.203125 -1.296875 7.25 0 L 14.875 -6.1875 L 13.8125 -7.671875 C 11.671875 -6.09375 10.875 -7.578125 10.96875 -9.953125 L 10.96875 -11.15625 C 13.0625 -15.296875 14.265625 -17.0625 15.296875 -16.921875 C 16.875 -16.734375 16.453125 -13.953125 16.5 -12.875 L 16.5 -8.09375 C 16.5 -4 18.078125 -1.296875 20.171875 0 L 27.796875 -6.1875 L 26.734375 -7.671875 C 24.59375 -6.09375 23.84375 -7.578125 23.890625 -9.953125 L 23.84375 -11.484375 C 25.890625 -15.390625 27.046875 -17.0625 28.078125 -16.96875 C 29.65625 -16.828125 29.1875 -13.984375 29.28125 -12.921875 L 29.28125 -8.09375 C 29.28125 -4.046875 30.8125 -1.25 32.90625 0 L 40.578125 -6.234375 Z M 39.515625 -7.71875 "/></g></g></g><g fill="#b98ee4" fill-opacity="1"><g transform="translate(201.056032, 187.545837)"><g><path d="M 11.859375 -25.75 L 3.4375 -18.828125 C -3.15625 -12.78125 2.609375 0.046875 9.625 0 L 18.78125 -7.484375 C 26.265625 -14.734375 21.25 -25.75 11.859375 -25.75 Z M 14.171875 -6.375 C 8.734375 -6.375 5.4375 -16.96875 8.328125 -20.125 C 13.8125 -20.125 15.984375 -9.90625 14.171875 -6.375 Z M 14.171875 -6.375 "/></g></g></g><g fill="#b98ee4" fill-opacity="1"><g transform="translate(224.015477, 187.545837)"><g><path d="M 1.015625 -29.328125 L 2.75 -26.921875 L 10.1875 -31.703125 L 7.90625 -34.859375 Z M 13.8125 -7.671875 C 11.625 -6.09375 10.828125 -7.578125 10.921875 -9.953125 L 10.828125 -17.484375 C 10.921875 -21.890625 10 -23.703125 7.203125 -25.75 L -1.109375 -18.828125 L -0.375 -17.34375 C 2.375 -19.015625 3.4375 -18.125 3.578125 -15.296875 L 3.578125 -8.046875 C 3.578125 -3.953125 5.15625 -1.25 7.203125 0 L 14.875 -6.1875 Z M 13.8125 -7.671875 "/></g></g></g><g fill="#b98ee4" fill-opacity="1"><g transform="translate(238.330272, 187.545837)"><g><path d="M 16.125 -15.0625 L 22.171875 -20.078125 C 22.171875 -20.078125 18.828125 -25.75 15.296875 -25.75 L 10.546875 -21.203125 C 10.09375 -23.15625 9.015625 -24.40625 7.203125 -25.75 L -1.109375 -18.78125 L -0.328125 -17.296875 C 2.421875 -19.0625 3.484375 -18.125 3.578125 -15.296875 L 3.578125 -8.046875 C 3.53125 -4 5.109375 -1.296875 7.203125 0 L 14.875 -6.1875 L 13.8125 -7.625 C 11.625 -6.09375 10.875 -7.578125 10.921875 -9.953125 L 10.875 -17.484375 L 10.875 -18.171875 L 11.15625 -18.453125 C 13.109375 -20.265625 14.828125 -17.25 16.125 -15.0625 Z M 16.125 -15.0625 "/></g></g></g><g fill="#b98ee4" fill-opacity="1"><g transform="translate(258.826456, 187.545837)"><g><path d="M 10.546875 -9.4375 L 20.359375 -17.578125 C 20.359375 -20.640625 15.84375 -25.75 12.3125 -25.75 C 8.640625 -25.75 2.921875 -19.390625 1.71875 -17.390625 C -1.53125 -11.53125 4.828125 -0.140625 10.09375 0 L 19.9375 -7.53125 L 18.96875 -9.015625 C 15.34375 -6.640625 12.59375 -7.390625 10.546875 -9.4375 Z M 7.953125 -20.453125 C 9.765625 -21.65625 12.59375 -17.84375 13.390625 -15.015625 L 9.4375 -11.671875 C 7.4375 -14.828125 6.046875 -19.0625 7.953125 -20.453125 Z M 7.953125 -20.453125 "/></g></g></g><g clip-path="url(#fcabcec433)"><path fill="#b98ee4" d="M 257.765625 151.738281 C 263.402344 142.101562 282.5 129.339844 295.238281 127.378906 C 301.449219 144.316406 307.660156 161.25 313.871094 178.1875 C 285.734375 182.71875 267.785156 198.445312 251.296875 215.777344 C 266.558594 195.195312 284.75 178.125 306.011719 172.851562 L 293.03125 133.027344 C 279.234375 134.78125 265.558594 144.867188 257.765625 151.738281 Z M 257.765625 151.738281 " fill-opacity="1" fill-rule="evenodd"/></g><path fill="#853bce" d="M 301.808594 140.832031 C 304.398438 139.753906 306.984375 138.859375 309.453125 138.160156 C 315.664062 155.09375 321.875 172.03125 328.089844 188.96875 C 299.949219 193.496094 274.578125 202.214844 257.484375 218.429688 C 273.089844 198.269531 298.964844 188.90625 320.230469 183.632812 L 307.25 143.804688 C 305.941406 144.109375 304.613281 144.449219 303.273438 144.824219 Z M 301.808594 140.832031 " fill-opacity="1" fill-rule="evenodd"/><g clip-path="url(#df1e584d9f)"><path fill="#291839" d="M 315.9375 151.375 C 318.542969 150.449219 321.152344 149.652344 323.667969 148.9375 C 329.878906 165.875 336.09375 182.8125 342.304688 199.746094 C 314.449219 201.941406 281.214844 208.660156 262.390625 221.269531 C 281.496094 203.785156 312.097656 197.808594 334.445312 194.414062 L 321.464844 154.585938 C 320.140625 154.894531 318.800781 155.203125 317.457031 155.519531 Z M 315.9375 151.375 " fill-opacity="1" fill-rule="evenodd"/></g><g clip-path="url(#3f4e6812da)"><path fill="#b98ee4" d="M 116.902344 151.738281 C 111.265625 142.101562 92.164062 129.339844 79.429688 127.378906 C 73.214844 144.316406 67.003906 161.25 60.792969 178.1875 C 88.929688 182.71875 106.878906 198.445312 123.367188 215.777344 C 108.109375 195.195312 89.914062 178.125 68.652344 172.851562 L 81.632812 133.027344 C 95.433594 134.78125 109.105469 144.867188 116.902344 151.738281 Z M 116.902344 151.738281 " fill-opacity="1" fill-rule="evenodd"/></g><path fill="#853bce" d="M 72.855469 140.832031 C 70.265625 139.753906 67.683594 138.859375 65.210938 138.160156 C 59 155.09375 52.789062 172.03125 46.574219 188.96875 C 74.714844 193.496094 100.085938 202.214844 117.183594 218.429688 C 101.574219 198.269531 75.699219 188.90625 54.433594 183.632812 L 67.414062 143.804688 C 68.722656 144.109375 70.054688 144.449219 71.390625 144.824219 Z M 72.855469 140.832031 " fill-opacity="1" fill-rule="evenodd"/><g clip-path="url(#68dab74df4)"><path fill="#291839" d="M 58.726562 151.375 C 56.125 150.449219 53.511719 149.652344 50.996094 148.9375 C 44.785156 165.875 38.570312 182.8125 32.359375 199.746094 C 60.214844 201.941406 93.449219 208.660156 112.273438 221.269531 C 93.167969 203.785156 62.566406 197.808594 40.21875 194.414062 L 53.199219 154.585938 C 54.527344 154.894531 55.867188 155.203125 57.207031 155.519531 Z M 58.726562 151.375 " fill-opacity="1" fill-rule="evenodd"/></g></svg>